<?xml version="1.0" standalone="no"?><!DOCTYPE svg PUBLIC "-//W3C//DTD SVG 1.1//EN" "http://www.w3.org/Graphics/SVG/1.1/DTD/svg11.dtd"><svg t="1566373992800" class="icon" viewBox="0 0 1024 1024" version="1.1" xmlns="http://www.w3.org/2000/svg" p-id="2047" xmlns:xlink="http://www.w3.org/1999/xlink" width="32" height="32"><defs><style type="text/css"></style></defs><path d="M512.6 1023.2c-69 0-135.9-13.5-198.9-40.2-60.8-25.7-115.5-62.6-162.4-109.5S67.6 772 41.8 711.2c-26.6-63-40.2-129.9-40.2-198.9s13.5-135.9 40.2-198.9c25.7-60.8 62.6-115.5 109.5-162.4S252.9 67.3 313.7 41.6C376.7 15 443.6 1.4 512.6 1.4s135.9 13.5 198.9 40.2c60.8 25.7 115.5 62.6 162.4 109.5s83.7 101.5 109.5 162.4c26.6 63 40.2 129.9 40.2 198.9s-13.5 135.9-40.2 198.9c-25.7 60.8-62.6 115.5-109.5 162.4S772.3 957.3 711.4 983c-63 26.7-129.9 40.2-198.8 40.2z m0-957.8c-246.4 0-446.9 200.5-446.9 446.9 0 246.4 200.5 446.9 446.9 446.9 246.4 0 446.9-200.5 446.9-446.9C959.4 265.9 759 65.4 512.6 65.4z" p-id="2048" fill="#bfbfbf"></path><path d="M508.3 688.3c-68.4 0-132.7-26.6-181.1-75s-75-112.7-75-181.1 26.6-132.7 75-181.1 112.7-75 181.1-75c68.4 0 132.7 26.6 181.1 75s75 112.7 75 181.1-26.6 132.7-75 181.1-112.7 75-181.1 75z m0-448.2c-105.9 0-192.1 86.2-192.1 192.1 0 105.9 86.2 192.1 192.1 192.1 105.9 0 192.1-86.2 192.1-192.1 0-105.9-86.2-192.1-192.1-192.1z" p-id="2049" fill="#bfbfbf"></path><path d="M209.6 915.2c-3.4 0-6.8-0.5-10.2-1.7-16.8-5.6-25.8-23.8-20.2-40.5 11.6-34.5 28.4-66.8 50-96.2 21.4-29 46.9-54.5 76-75.8 60.5-44.2 132.1-67.6 207.3-67.6 75.1 0 146.8 23.4 207.3 67.6 29.1 21.3 54.7 46.8 76 75.8 21.6 29.4 38.4 61.8 50 96.2 5.6 16.8-3.4 34.9-20.2 40.5-16.8 5.6-34.9-3.4-40.5-20.2-39.3-117.2-148.9-196-272.6-196-123.7 0-233.3 78.8-272.6 196-4.4 13.4-16.9 21.9-30.3 21.9z" p-id="2050" fill="#bfbfbf"></path></svg>